<?xml version="1.0" encoding="utf-8"?>
<!-- Generator: Adobe Illustrator 23.0.1, SVG Export Plug-In . SVG Version: 6.00 Build 0)  -->
<svg version="1.1" id="Ebene_1" xmlns="http://www.w3.org/2000/svg" xmlns:xlink="http://www.w3.org/1999/xlink" x="0px" y="0px"
	 viewBox="0 0 375 375" style="enable-background:new 0 0 375 375;" xml:space="preserve">
<style type="text/css">
	.st0{opacity:0.8;clip-path:url(#SVGID_2_);enable-background:new    ;}
	.st1{clip-path:url(#SVGID_4_);fill:#44D9E6;}
	.st2{clip-path:url(#SVGID_2_);fill:#666666;}
</style>
<g>
	<defs>
		<rect id="SVGID_1_" width="375" height="375"/>
	</defs>
	<clipPath id="SVGID_2_">
		<use xlink:href="#SVGID_1_"  style="overflow:visible;"/>
	</clipPath>
	<g class="st0">
		<g>
			<defs>
				<rect id="SVGID_3_" x="-1.67" y="-3.33" width="380" height="380"/>
			</defs>
			<clipPath id="SVGID_4_">
				<use xlink:href="#SVGID_3_"  style="overflow:visible;"/>
			</clipPath>
			<path class="st1" d="M375,187.5c0,12.31-1.2,24.5-3.6,36.58c-2.4,12.07-5.96,23.8-10.67,35.17
				c-4.71,11.37-10.49,22.18-17.33,32.42c-6.84,10.24-14.61,19.71-23.32,28.41c-8.71,8.71-18.18,16.48-28.41,23.32
				c-10.24,6.84-21.04,12.62-32.42,17.33c-11.37,4.71-23.1,8.27-35.17,10.67c-12.07,2.4-24.27,3.6-36.58,3.6s-24.5-1.2-36.58-3.6
				c-12.07-2.4-23.8-5.96-35.17-10.67c-11.37-4.71-22.18-10.49-32.42-17.33c-10.24-6.84-19.71-14.61-28.41-23.32
				c-8.71-8.71-16.48-18.18-23.32-28.41c-6.84-10.24-12.62-21.04-17.33-32.42C9.56,247.88,6,236.15,3.6,224.08
				C1.2,212,0,199.81,0,187.5c0-12.31,1.2-24.5,3.6-36.58c2.4-12.07,5.96-23.8,10.67-35.17S24.76,93.57,31.6,83.33
				c6.84-10.24,14.61-19.71,23.32-28.41c8.71-8.71,18.18-16.48,28.41-23.32c10.24-6.84,21.04-12.62,32.42-17.33S138.85,6,150.92,3.6
				C163,1.2,175.19,0,187.5,0s24.5,1.2,36.58,3.6c12.07,2.4,23.8,5.96,35.17,10.67c11.37,4.71,22.18,10.49,32.42,17.33
				c10.24,6.84,19.71,14.61,28.41,23.32c8.71,8.71,16.48,18.18,23.32,28.41c6.84,10.24,12.62,21.04,17.33,32.42
				c4.71,11.37,8.27,23.1,10.67,35.17C373.8,163,375,175.19,375,187.5z"/>
		</g>
	</g>
	<path class="st2" d="M273.31,187.5c0,11.38-2.18,22.33-6.53,32.84c-4.35,10.51-10.56,19.79-18.6,27.84
		c-8.05,8.05-17.33,14.25-27.84,18.6c-10.51,4.35-21.46,6.53-32.84,6.53c-11.38,0-22.33-2.18-32.84-6.53
		c-10.51-4.35-19.79-10.56-27.84-18.6c-8.05-8.05-14.25-17.33-18.6-27.84c-4.35-10.51-6.53-21.46-6.53-32.84
		c0-11.38,2.18-22.33,6.53-32.84c4.35-10.51,10.56-19.79,18.6-27.84c8.05-8.05,17.33-14.25,27.84-18.6
		c10.51-4.35,21.46-6.53,32.84-6.53c11.38,0,22.33,2.18,32.84,6.53c10.51,4.35,19.79,10.56,27.84,18.6
		c8.05,8.05,14.25,17.33,18.6,27.84C271.14,165.17,273.31,176.12,273.31,187.5z"/>
</g>
</svg>
