<?xml version="1.0" encoding="utf-8"?>
<!-- Generator: Adobe Illustrator 23.0.1, SVG Export Plug-In . SVG Version: 6.00 Build 0)  -->
<svg version="1.1" id="Ebene_1" xmlns="http://www.w3.org/2000/svg" xmlns:xlink="http://www.w3.org/1999/xlink" x="0px" y="0px"
	 viewBox="0 0 317 85" style="enable-background:new 0 0 317 85;" xml:space="preserve">
<style type="text/css">
	.st0{clip-path:url(#SVGID_2_);}
	.st1{fill:#666666;}
	.st2{opacity:0.8;clip-path:url(#SVGID_4_);enable-background:new    ;}
	.st3{clip-path:url(#SVGID_6_);fill:#44D9E6;}
	.st4{clip-path:url(#SVGID_4_);fill:#666666;}
</style>
<g>
	<defs>
		<rect id="SVGID_1_" x="-24" y="-155" width="375" height="375"/>
	</defs>
	<clipPath id="SVGID_2_">
		<use xlink:href="#SVGID_1_"  style="overflow:visible;"/>
	</clipPath>
	<g class="st0">
		<path class="st1" d="M93.59,52.25h-3.5v-7.5c0-0.93-0.16-1.62-0.47-2.09c-0.31-0.46-0.8-0.7-1.47-0.7c-0.9,0-1.55,0.33-1.95,0.99
			s-0.61,1.74-0.61,3.25v6.04h-3.5V39.4h2.68l0.47,1.64h0.2c0.34-0.59,0.84-1.05,1.49-1.38c0.65-0.33,1.4-0.5,2.24-0.5
			c1.92,0,3.23,0.63,3.91,1.88h0.31c0.34-0.6,0.85-1.06,1.52-1.39s1.43-0.49,2.27-0.49c1.46,0,2.56,0.37,3.3,1.12
			c0.75,0.75,1.12,1.94,1.12,3.59v8.38h-3.52v-7.5c0-0.93-0.15-1.62-0.47-2.09c-0.31-0.46-0.8-0.7-1.47-0.7
			c-0.86,0-1.5,0.31-1.92,0.92c-0.42,0.61-0.64,1.59-0.64,2.92V52.25z"/>
	</g>
	<g class="st0">
		<path class="st1" d="M111,52.48c-2.07,0-3.69-0.57-4.85-1.71c-1.17-1.14-1.75-2.76-1.75-4.85c0-2.15,0.54-3.82,1.61-4.99
			c1.08-1.18,2.56-1.76,4.46-1.76c1.82,0,3.23,0.52,4.24,1.55c1.01,1.04,1.52,2.46,1.52,4.29v1.7h-8.29c0.04,1,0.33,1.77,0.88,2.33
			c0.55,0.56,1.33,0.84,2.32,0.84c0.77,0,1.51-0.08,2.19-0.24s1.41-0.42,2.16-0.77v2.71c-0.61,0.31-1.27,0.53-1.97,0.68
			S112,52.48,111,52.48z M110.51,41.66c-0.74,0-1.33,0.24-1.75,0.71c-0.42,0.47-0.66,1.14-0.72,2h4.92c-0.02-0.87-0.24-1.53-0.68-2
			C111.84,41.89,111.25,41.66,110.51,41.66z"/>
	</g>
	<g class="st0">
		<path class="st1" d="M130.94,52.25h-3.5v-7.5c0-1.85-0.69-2.78-2.07-2.78c-0.98,0-1.69,0.33-2.13,1
			c-0.44,0.67-0.65,1.75-0.65,3.24v6.04h-3.5V34.37h3.5v3.64c0,0.28-0.03,0.95-0.08,2l-0.08,1.03h0.18
			c0.78-1.26,2.02-1.88,3.72-1.88c1.51,0,2.65,0.41,3.44,1.22c0.78,0.81,1.17,1.98,1.17,3.49V52.25z"/>
	</g>
	<g class="st0">
		<path class="st1" d="M141.71,39.16c0.48,0,0.87,0.03,1.18,0.1l-0.26,3.29c-0.28-0.08-0.63-0.11-1.03-0.11
			c-1.12,0-1.99,0.29-2.61,0.86c-0.62,0.57-0.94,1.38-0.94,2.41v6.54h-3.5V39.4h2.65l0.52,2.16h0.17c0.4-0.72,0.94-1.3,1.61-1.74
			C140.18,39.38,140.92,39.16,141.71,39.16z"/>
	</g>
	<g class="st0">
		<path class="st1" d="M155.78,52.25l-0.99-4.49l-1.33-5.68h-0.08l-2.34,10.17h-3.77l-3.65-12.85h3.49l1.48,5.69
			c0.24,1.02,0.48,2.42,0.72,4.22h0.07c0.03-0.58,0.16-1.51,0.4-2.77l0.18-0.98l1.59-6.16h3.86l1.51,6.16
			c0.03,0.17,0.08,0.42,0.14,0.75c0.07,0.33,0.13,0.68,0.19,1.05c0.06,0.37,0.12,0.74,0.17,1.09s0.08,0.64,0.09,0.86h0.07
			c0.07-0.55,0.19-1.31,0.37-2.27c0.18-0.96,0.3-1.61,0.38-1.95l1.54-5.69h3.44l-3.7,12.85H155.78z"/>
	</g>
	<g class="st0">
		<path class="st1" d="M171.17,52.48c-2.07,0-3.68-0.57-4.85-1.71c-1.16-1.14-1.75-2.76-1.75-4.85c0-2.15,0.54-3.82,1.61-4.99
			s2.56-1.76,4.46-1.76c1.82,0,3.23,0.52,4.24,1.55c1.01,1.04,1.52,2.46,1.52,4.29v1.7h-8.29c0.04,1,0.33,1.77,0.88,2.33
			c0.55,0.56,1.33,0.84,2.32,0.84c0.77,0,1.5-0.08,2.19-0.24c0.69-0.16,1.41-0.42,2.16-0.77v2.71c-0.61,0.31-1.27,0.53-1.96,0.68
			C173.02,52.41,172.17,52.48,171.17,52.48z M170.67,41.66c-0.74,0-1.33,0.24-1.75,0.71c-0.42,0.47-0.66,1.14-0.72,2h4.92
			c-0.02-0.87-0.24-1.53-0.68-2C172,41.89,171.41,41.66,170.67,41.66z"/>
	</g>
	<g class="st0">
		<path class="st1" d="M186.42,39.16c0.47,0,0.87,0.03,1.18,0.1l-0.26,3.29c-0.28-0.08-0.63-0.11-1.03-0.11
			c-1.12,0-1.99,0.29-2.61,0.86c-0.63,0.57-0.94,1.38-0.94,2.41v6.54h-3.5V39.4h2.65l0.52,2.16h0.17c0.4-0.72,0.94-1.3,1.61-1.74
			C184.89,39.38,185.62,39.16,186.42,39.16z"/>
	</g>
	<g class="st0">
		<path class="st1" d="M195.34,49.69c0.61,0,1.35-0.13,2.21-0.4v2.61c-0.87,0.39-1.95,0.59-3.22,0.59c-1.4,0-2.42-0.35-3.06-1.06
			s-0.96-1.77-0.96-3.19v-6.19h-1.68v-1.48l1.93-1.17l1.01-2.71h2.24v2.74h3.6v2.63h-3.6v6.19c0,0.5,0.14,0.87,0.42,1.1
			C194.51,49.57,194.88,49.69,195.34,49.69z"/>
	</g>
	<g class="st0">
		<path class="st1" d="M203.75,45.22h-4.45V42.7h4.45v-4.48h2.52v4.48h4.45v2.52h-4.45v4.42h-2.52V45.22z"/>
	</g>
	<g class="st0">
		<path class="st1" d="M219.38,52.48c-2.07,0-3.68-0.57-4.85-1.71c-1.16-1.14-1.75-2.76-1.75-4.85c0-2.15,0.54-3.82,1.61-4.99
			s2.56-1.76,4.46-1.76c1.82,0,3.23,0.52,4.24,1.55c1.01,1.04,1.52,2.46,1.52,4.29v1.7h-8.29c0.04,1,0.33,1.77,0.88,2.33
			c0.55,0.56,1.33,0.84,2.32,0.84c0.77,0,1.5-0.08,2.19-0.24c0.69-0.16,1.41-0.42,2.16-0.77v2.71c-0.61,0.31-1.27,0.53-1.96,0.68
			C221.23,52.41,220.38,52.48,219.38,52.48z M218.88,41.66c-0.74,0-1.33,0.24-1.75,0.71c-0.42,0.47-0.66,1.14-0.72,2h4.92
			c-0.02-0.87-0.24-1.53-0.68-2C220.22,41.89,219.63,41.66,218.88,41.66z"/>
	</g>
	<g class="st0">
		<path class="st1" d="M239.32,52.25h-3.5v-7.5c0-0.93-0.17-1.62-0.49-2.09c-0.33-0.46-0.85-0.7-1.57-0.7
			c-0.98,0-1.69,0.33-2.13,0.98c-0.44,0.66-0.66,1.74-0.66,3.26v6.04h-3.5V39.4h2.68l0.47,1.64h0.2c0.39-0.62,0.93-1.09,1.61-1.41
			c0.69-0.32,1.47-0.48,2.34-0.48c1.49,0,2.63,0.4,3.4,1.21c0.77,0.81,1.16,1.97,1.16,3.5V52.25z"/>
	</g>
	<g class="st0">
		<path class="st1" d="M248.73,52.48c-2.07,0-3.68-0.57-4.85-1.71c-1.16-1.14-1.75-2.76-1.75-4.85c0-2.15,0.54-3.82,1.61-4.99
			s2.56-1.76,4.46-1.76c1.82,0,3.23,0.52,4.24,1.55c1.01,1.04,1.52,2.46,1.52,4.29v1.7h-8.29c0.04,1,0.33,1.77,0.88,2.33
			c0.55,0.56,1.33,0.84,2.32,0.84c0.77,0,1.5-0.08,2.19-0.24c0.69-0.16,1.41-0.42,2.16-0.77v2.71c-0.61,0.31-1.27,0.53-1.96,0.68
			C250.59,52.41,249.74,52.48,248.73,52.48z M248.24,41.66c-0.74,0-1.33,0.24-1.75,0.71c-0.42,0.47-0.66,1.14-0.72,2h4.92
			c-0.02-0.87-0.24-1.53-0.68-2C249.57,41.89,248.98,41.66,248.24,41.66z"/>
	</g>
	<g class="st0">
		<path class="st1" d="M263.99,39.16c0.47,0,0.87,0.03,1.18,0.1l-0.26,3.29c-0.28-0.08-0.63-0.11-1.03-0.11
			c-1.12,0-1.99,0.29-2.61,0.86c-0.63,0.57-0.94,1.38-0.94,2.41v6.54h-3.5V39.4h2.65l0.52,2.16h0.17c0.4-0.72,0.94-1.3,1.61-1.74
			C262.45,39.38,263.19,39.16,263.99,39.16z"/>
	</g>
	<g class="st0">
		<path class="st1" d="M278.67,39.4v1.78l-2.01,0.52c0.37,0.58,0.55,1.22,0.55,1.93c0,1.38-0.48,2.45-1.44,3.22
			c-0.96,0.77-2.3,1.16-4,1.16l-0.63-0.04l-0.52-0.06c-0.36,0.28-0.54,0.58-0.54,0.92c0,0.51,0.64,0.76,1.93,0.76h2.18
			c1.41,0,2.48,0.3,3.22,0.91c0.74,0.61,1.11,1.49,1.11,2.67c0,1.5-0.63,2.67-1.88,3.49c-1.25,0.83-3.05,1.24-5.4,1.24
			c-1.79,0-3.16-0.31-4.11-0.94c-0.95-0.63-1.42-1.5-1.42-2.63c0-0.77,0.24-1.42,0.72-1.94s1.19-0.89,2.13-1.11
			c-0.36-0.15-0.67-0.4-0.94-0.75s-0.4-0.72-0.4-1.11c0-0.49,0.14-0.9,0.43-1.22c0.28-0.33,0.69-0.65,1.23-0.96
			c-0.67-0.29-1.21-0.76-1.6-1.4s-0.59-1.4-0.59-2.28c0-1.4,0.46-2.49,1.37-3.25c0.91-0.77,2.21-1.15,3.91-1.15
			c0.36,0,0.79,0.03,1.28,0.1s0.81,0.11,0.95,0.14H278.67z M268.76,54.07c0,0.48,0.23,0.86,0.7,1.14c0.46,0.28,1.11,0.41,1.95,0.41
			c1.26,0,2.24-0.17,2.95-0.52s1.07-0.82,1.07-1.41c0-0.48-0.21-0.82-0.63-1c-0.42-0.18-1.07-0.28-1.95-0.28h-1.82
			c-0.64,0-1.18,0.15-1.61,0.45C268.97,53.17,268.76,53.57,268.76,54.07z M270.03,43.61c0,0.7,0.16,1.25,0.48,1.65
			c0.32,0.41,0.8,0.61,1.45,0.61c0.66,0,1.14-0.2,1.45-0.61c0.31-0.41,0.46-0.96,0.46-1.65c0-1.55-0.64-2.32-1.91-2.32
			C270.67,41.29,270.03,42.06,270.03,43.61z"/>
	</g>
	<g class="st0">
		<path class="st1" d="M280.63,36.08c0-1.14,0.64-1.71,1.91-1.71s1.91,0.57,1.91,1.71c0,0.54-0.16,0.97-0.48,1.27
			c-0.32,0.3-0.79,0.45-1.43,0.45C281.27,37.81,280.63,37.23,280.63,36.08z M284.29,52.25h-3.5V39.4h3.5V52.25z"/>
	</g>
	<g class="st0">
		<path class="st1" d="M293.77,52.48c-2.07,0-3.68-0.57-4.85-1.71c-1.16-1.14-1.75-2.76-1.75-4.85c0-2.15,0.54-3.82,1.61-4.99
			s2.56-1.76,4.46-1.76c1.82,0,3.23,0.52,4.24,1.55c1.01,1.04,1.52,2.46,1.52,4.29v1.7h-8.29c0.04,1,0.33,1.77,0.88,2.33
			c0.55,0.56,1.33,0.84,2.32,0.84c0.77,0,1.5-0.08,2.19-0.24c0.69-0.16,1.41-0.42,2.16-0.77v2.71c-0.61,0.31-1.27,0.53-1.96,0.68
			C295.62,52.41,294.77,52.48,293.77,52.48z M293.27,41.66c-0.74,0-1.33,0.24-1.75,0.71c-0.42,0.47-0.66,1.14-0.72,2h4.92
			c-0.02-0.87-0.24-1.53-0.68-2C294.61,41.89,294.02,41.66,293.27,41.66z"/>
	</g>
	<g class="st0">
		<path class="st1" d="M301.36,50.61c0-0.64,0.17-1.13,0.52-1.46s0.85-0.49,1.51-0.49c0.64,0,1.13,0.17,1.48,0.51
			c0.35,0.34,0.52,0.82,0.52,1.45c0,0.61-0.18,1.08-0.53,1.43s-0.84,0.52-1.47,0.52c-0.64,0-1.14-0.17-1.49-0.51
			S301.36,51.23,301.36,50.61z"/>
	</g>
</g>
<g>
	<defs>
		<rect id="SVGID_3_" x="17.25" y="13.5" width="56.25" height="56.25"/>
	</defs>
	<clipPath id="SVGID_4_">
		<use xlink:href="#SVGID_3_"  style="overflow:visible;"/>
	</clipPath>
	<g class="st2">
		<g>
			<defs>
				<rect id="SVGID_5_" x="17" y="13" width="57" height="57"/>
			</defs>
			<clipPath id="SVGID_6_">
				<use xlink:href="#SVGID_5_"  style="overflow:visible;"/>
			</clipPath>
			<path class="st3" d="M73.5,41.63c0,1.85-0.18,3.68-0.54,5.49c-0.36,1.81-0.89,3.57-1.6,5.28c-0.71,1.71-1.57,3.33-2.6,4.86
				c-1.03,1.54-2.19,2.96-3.5,4.26c-1.31,1.31-2.73,2.47-4.26,3.5c-1.54,1.03-3.16,1.89-4.86,2.6c-1.71,0.71-3.46,1.24-5.28,1.6
				c-1.81,0.36-3.64,0.54-5.49,0.54s-3.68-0.18-5.49-0.54c-1.81-0.36-3.57-0.89-5.28-1.6c-1.71-0.71-3.33-1.57-4.86-2.6
				c-1.54-1.03-2.96-2.19-4.26-3.5c-1.31-1.31-2.47-2.73-3.5-4.26c-1.03-1.54-1.89-3.16-2.6-4.86c-0.71-1.71-1.24-3.46-1.6-5.28
				c-0.36-1.81-0.54-3.64-0.54-5.49s0.18-3.68,0.54-5.49c0.36-1.81,0.89-3.57,1.6-5.28s1.57-3.33,2.6-4.86
				c1.03-1.54,2.19-2.96,3.5-4.26c1.31-1.31,2.73-2.47,4.26-3.5c1.54-1.03,3.16-1.89,4.86-2.6s3.46-1.24,5.28-1.6
				c1.81-0.36,3.64-0.54,5.49-0.54s3.68,0.18,5.49,0.54c1.81,0.36,3.57,0.89,5.28,1.6s3.33,1.57,4.86,2.6
				c1.54,1.03,2.96,2.19,4.26,3.5c1.31,1.31,2.47,2.73,3.5,4.26c1.03,1.54,1.89,3.16,2.6,4.86c0.71,1.71,1.24,3.46,1.6,5.28
				C73.32,37.95,73.5,39.78,73.5,41.63z"/>
		</g>
	</g>
	<path class="st4" d="M58.25,41.63c0,1.71-0.33,3.35-0.98,4.93s-1.58,2.97-2.79,4.18c-1.21,1.21-2.6,2.14-4.18,2.79
		c-1.58,0.65-3.22,0.98-4.93,0.98c-1.71,0-3.35-0.33-4.93-0.98c-1.58-0.65-2.97-1.58-4.18-2.79c-1.21-1.21-2.14-2.6-2.79-4.18
		c-0.65-1.58-0.98-3.22-0.98-4.93c0-1.71,0.33-3.35,0.98-4.93c0.65-1.58,1.58-2.97,2.79-4.18c1.21-1.21,2.6-2.14,4.18-2.79
		c1.58-0.65,3.22-0.98,4.93-0.98c1.71,0,3.35,0.33,4.93,0.98c1.58,0.65,2.97,1.58,4.18,2.79c1.21,1.21,2.14,2.6,2.79,4.18
		C57.92,38.28,58.25,39.92,58.25,41.63z"/>
</g>
</svg>
